:FULLY-SPECIFIED
:FORCE-ALL-JOINTS-BE-3DOF
:DEGREES
97
root 9.1479 16.1091 -23.3792 5.13262 -1.58689 3.26847
lfemur -2.5316 3.50626 -25.2338
ltibia 14.5302 -0 0
lfoot -13.0812 3.24864 0.0823779
ltoes -4.70387 0 0
rfemur -24.1016 7.62635 10.2847
rtibia 37.3726 -0 0
rfoot -9.84082 -11.7544 0.277285
rtoes -13.1769 0 0
lowerback -6.98336 -1.88281 -4.69023
upperback -1.67662 -2.22619 2.30756
thorax 2.52603 -1.14989 4.73019
lowerneck -20.7666 -4.838 -12.6116
upperneck 19.7754 -5.63467 11.8819
head 10.4882 -2.18501 5.53746
lclavicle -5.58874e-14 1.19401e-14 1.20899e-30
lhumerus -33.7663 -16.7797 93.3281
lradius 32.3433 -0 0
lwrist 4.57126 0 0
lhand -4.97003 -21.2897 0.215525
lfingers 7.12502 -0 0
lthumb 20.8095 7.46524 0.16124
rclavicle -5.58874e-14 1.19401e-14 1.20899e-30
rhumerus -45.319 10.067 -86.7753
rradius 35.5911 -0 0
rwrist -19.1759 0 0
rhand -29.8529 -23.9544 -0.00358921
rfingers 7.12502 -0 0
rthumb -3.17543 -53.9104 -0.00347494
98
root 9.15145 16.1058 -23.2562 5.1307 -1.28733 3.35289
lfemur -1.76878 3.38954 -25.3217
ltibia 13.9714 -0 0
lfoot -13.1705 3.13242 0.0814722
ltoes -4.73223 0 0
rfemur -24.7883 7.819 10.0915
rtibia 36.9353 -0 0
rfoot -10.41 -11.8161 0.274215
rtoes -13.5125 0 0
lowerback -7.03392 -1.95445 -4.76141
upperback -1.65787 -2.31399 2.29894
thorax 2.58567 -1.196 4.7522
lowerneck -20.7193 -4.85802 -12.6366
upperneck 19.8387 -5.65836 11.8517
head 10.5054 -2.2029 5.52874
lclavicle -5.75559e-14 1.20314e-14 1.1957e-30
lhumerus -33.5797 -17.1443 93.447
lradius 32.6814 -0 0
lwrist 4.81702 0 0
lhand -5.19986 -21.4079 0.213153
lfingers 7.12502 -0 0
lthumb 20.589 7.37308 0.159466
rclavicle -5.75559e-14 1.20314e-14 1.1957e-30
rhumerus -45.3813 9.95909 -86.6404
rradius 35.5216 -0 0
rwrist -19.1705 0 0
rhand -29.8616 -23.9025 -0.00354977
rfingers 7.12502 -0 0
rthumb -3.18384 -53.8583 -0.00343675
99
root 9.15501 16.1026 -23.1332 5.12922 -0.987771 3.43729
lfemur -1.00588 3.27399 -25.4112
ltibia 13.4125 -0 0
lfoot -13.2598 3.01619 0.0803854
ltoes -4.7606 0 0
rfemur -25.476 8.00934 9.89603
rtibia 36.4981 -0 0
rfoot -10.9793 -11.8778 0.270532
rtoes -13.848 0 0
lowerback -7.0844 -2.02617 -4.83253
upperback -1.63911 -2.4018 2.29029
thorax 2.64529 -1.24212 4.77416
lowerneck -20.6721 -4.87802 -12.6616
upperneck 19.902 -5.68202 11.8216
head 10.5225 -2.22078 5.52001
lclavicle -5.92244e-14 1.21226e-14 1.17976e-30
lhumerus -33.3935 -17.5092 93.565
lradius 33.0196 -0 0
lwrist 5.06278 0 0
lhand -5.42969 -21.5262 0.210306
lfingers 7.12502 -0 0
lthumb 20.3684 7.28093 0.157337
rclavicle -5.92244e-14 1.21226e-14 1.17976e-30
rhumerus -45.4438 9.8513 -86.5054
rradius 35.4522 -0 0
rwrist -19.1652 0 0
rhand -29.8703 -23.8506 -0.00350243
rfingers 7.12502 -0 0
rthumb -3.19225 -53.8063 -0.00339093
100
root 9.15856 16.0994 -23.0101 5.12818 -0.688211 3.52167
lfemur -0.242889 3.15965 -25.5022
ltibia 12.8537 -0 0
lfoot -13.3491 2.89997 0.0791174
ltoes -4.78896 0 0
rfemur -26.1646 8.19735 9.69814
rtibia 36.0609 -0 0
rfoot -11.5485 -11.9395 0.266236
rtoes -14.1836 0 0
lowerback -7.1348 -2.09794 -4.9036
upperback -1.62034 -2.4896 2.28161
thorax 2.70489 -1.28827 4.79608
lowerneck -20.6249 -4.898 -12.6867
upperneck 19.9654 -5.70564 11.7914
head 10.5396 -2.23866 5.51128
lclavicle -6.08929e-14 1.22139e-14 1.16116e-30
lhumerus -33.2077 -17.8745 93.6819
lradius 33.3577 -0 0
lwrist 5.30854 0 0
lhand -5.65951 -21.6444 0.206986
lfingers 7.12502 -0 0
lthumb 20.1478 7.18879 0.154853
rclavicle -6.08929e-14 1.22139e-14 1.16116e-30
rhumerus -45.5066 9.74366 -86.3704
rradius 35.3827 -0 0
rwrist -19.1598 0 0
rhand -29.8791 -23.7987 -0.00344721
rfingers 7.12502 -0 0
rthumb -3.20066 -53.7543 -0.00333746
101
root 9.16212 16.0961 -22.8871 5.12758 -0.388649 3.60605
lfemur 0.520204 3.04652 -25.5948
ltibia 12.2948 -0 0
lfoot -13.4384 2.78375 0.0776684
ltoes -4.81733 0 0
rfemur -26.8543 8.38298 9.49787
rtibia 35.6236 -0 0
rfoot -12.1177 -12.0012 0.261327
rtoes -14.5192 0 0
lowerback -7.18511 -2.16977 -4.9746
upperback -1.60156 -2.57739 2.27291
thorax 2.76448 -1.33445 4.81794
lowerneck -20.5776 -4.91796 -12.7117
upperneck 20.0287 -5.72923 11.7611
head 10.5568 -2.25654 5.50254
lclavicle -6.25614e-14 1.23051e-14 1.13991e-30
lhumerus -33.0223 -18.2402 93.7979
lradius 33.6958 -0 0
lwrist 5.5543 0 0
lhand -5.88932 -21.7626 0.203191
lfingers 7.12502 -0 0
lthumb 19.9273 7.09666 0.152015
rclavicle -6.25614e-14 1.23051e-14 1.13991e-30
rhumerus -45.5697 9.63617 -86.2352
rradius 35.3133 -0 0
rwrist -19.1545 0 0
rhand -29.8878 -23.7468 -0.0033841
rfingers 7.12502 -0 0
rthumb -3.20907 -53.7022 -0.00327636
102
root 9.16567 16.0929 -22.7641 5.12743 -0.0890873 3.69042
lfemur 1.2834 2.93464 -25.6888
ltibia 11.736 -0 0
lfoot -13.5276 2.66754 0.0760382
ltoes -4.84569 0 0
rfemur -27.5449 8.56622 9.29527
rtibia 35.1864 -0 0
rfoot -12.6869 -12.0627 0.255806
rtoes -14.8548 0 0
lowerback -7.23533 -2.24167 -5.04554
upperback -1.58275 -2.66519 2.26417
thorax 2.82405 -1.38064 4.83976
lowerneck -20.5303 -4.9379 -12.7368
upperneck 20.0921 -5.75279 11.7309
head 10.5739 -2.27442 5.4938
lclavicle -6.42299e-14 1.23963e-14 1.11599e-30
lhumerus -32.8374 -18.6062 93.9128
lradius 34.034 -0 0
lwrist 5.80006 0 0
lhand -6.11912 -21.8808 0.198922
lfingers 7.12502 -0 0
lthumb 19.7067 7.00454 0.148822
rclavicle -6.42299e-14 1.23963e-14 1.11599e-30
rhumerus -45.6329 9.52882 -86.1
rradius 35.2439 -0 0
rwrist -19.1491 0 0
rhand -29.8965 -23.6949 -0.0033131
rfingers 7.12502 -0 0
rthumb -3.21748 -53.6502 -0.00320762
